<mxfile host="app.diagrams.net" agent="Mozilla/5.0 (Windows NT 10.0; Win64; x64) AppleWebKit/537.36 (KHTML, like Gecko) Chrome/139.0.0.0 Safari/537.36" version="28.1.0" pages="4">
  <diagram name="Página-1" id="R5rRtUV8QfAV9kbqdX8D">
    <mxGraphModel grid="1" page="1" gridSize="10" guides="1" tooltips="1" connect="1" arrows="1" fold="1" pageScale="1" pageWidth="827" pageHeight="1169" math="0" shadow="0">
      <root>
        <mxCell id="0" />
        <mxCell id="1" parent="0" />
        <mxCell id="XazZaZ8GkJGnkjC0Wd-L-2" value="problema 1" style="rounded=0;whiteSpace=wrap;html=1;" parent="1" vertex="1">
          <mxGeometry x="354" y="190" width="120" height="60" as="geometry" />
        </mxCell>
        <mxCell id="XazZaZ8GkJGnkjC0Wd-L-3" value="" style="shape=flexArrow;endArrow=classic;html=1;rounded=0;" parent="1" edge="1">
          <mxGeometry width="50" height="50" relative="1" as="geometry">
            <mxPoint x="406.66" y="260" as="sourcePoint" />
            <mxPoint x="406.66" y="330" as="targetPoint" />
            <Array as="points">
              <mxPoint x="406.66" y="310" />
            </Array>
          </mxGeometry>
        </mxCell>
        <mxCell id="XazZaZ8GkJGnkjC0Wd-L-5" value="atributos del perfil" style="swimlane;whiteSpace=wrap;html=1;" parent="1" vertex="1">
          <mxGeometry x="170" y="340" width="200" height="200" as="geometry" />
        </mxCell>
        <mxCell id="XazZaZ8GkJGnkjC0Wd-L-6" value="nombre de usuario(string)&lt;div&gt;lista de juegos:[juego]&amp;nbsp;&lt;/div&gt;&lt;div&gt;fecha de inscripcion:date&lt;/div&gt;&lt;div&gt;&lt;span style=&quot;background-color: transparent; color: light-dark(rgb(0, 0, 0), rgb(255, 255, 255));&quot;&gt;&amp;nbsp;lista de amigos:[perfil]&lt;/span&gt;&lt;/div&gt;" style="text;html=1;align=center;verticalAlign=middle;resizable=0;points=[];autosize=1;strokeColor=none;fillColor=none;" parent="XazZaZ8GkJGnkjC0Wd-L-5" vertex="1">
          <mxGeometry x="15" y="55" width="160" height="70" as="geometry" />
        </mxCell>
        <mxCell id="XazZaZ8GkJGnkjC0Wd-L-10" value="metodos" style="swimlane;whiteSpace=wrap;html=1;" parent="1" vertex="1">
          <mxGeometry x="210" y="540" width="394" height="200" as="geometry" />
        </mxCell>
        <mxCell id="XazZaZ8GkJGnkjC0Wd-L-11" value="agregar amigos(lista de amigos)&lt;div&gt;eliminar amigos(lista de amigos)&amp;nbsp;&lt;/div&gt;&lt;div&gt;enviar mensajes(string)&lt;/div&gt;&lt;div&gt;mostrar porcentaje de comletitud de los juegos(logros/horas de juego)&lt;/div&gt;" style="text;html=1;align=center;verticalAlign=middle;resizable=0;points=[];autosize=1;strokeColor=none;fillColor=none;" parent="XazZaZ8GkJGnkjC0Wd-L-10" vertex="1">
          <mxGeometry x="-6" y="65" width="400" height="70" as="geometry" />
        </mxCell>
        <mxCell id="XazZaZ8GkJGnkjC0Wd-L-12" value="atributos del juego&amp;nbsp;" style="swimlane;whiteSpace=wrap;html=1;" parent="1" vertex="1">
          <mxGeometry x="440" y="340" width="200" height="200" as="geometry" />
        </mxCell>
        <mxCell id="XazZaZ8GkJGnkjC0Wd-L-13" value="nombre del juego:string&lt;div&gt;logros del juego: [logros]&lt;/div&gt;&lt;div&gt;cantidad e hotas jugadas:(int)&amp;nbsp;&lt;/div&gt;" style="text;html=1;align=center;verticalAlign=middle;resizable=0;points=[];autosize=1;strokeColor=none;fillColor=none;" parent="XazZaZ8GkJGnkjC0Wd-L-12" vertex="1">
          <mxGeometry x="5" y="60" width="180" height="60" as="geometry" />
        </mxCell>
      </root>
    </mxGraphModel>
  </diagram>
  <diagram id="shyGM-MUUAaPrmJ-n4Ua" name="Página-2">
    <mxGraphModel dx="2037" dy="1110" grid="1" gridSize="10" guides="1" tooltips="1" connect="1" arrows="1" fold="1" page="1" pageScale="1" pageWidth="827" pageHeight="1169" math="0" shadow="0">
      <root>
        <mxCell id="0" />
        <mxCell id="1" parent="0" />
        <mxCell id="PupEkHxcg74p78PUQizy-1" value="problema 2" style="rounded=0;whiteSpace=wrap;html=1;" vertex="1" parent="1">
          <mxGeometry x="340" y="120" width="120" height="60" as="geometry" />
        </mxCell>
        <mxCell id="PupEkHxcg74p78PUQizy-2" value="" style="shape=flexArrow;endArrow=classic;html=1;rounded=0;" edge="1" parent="1">
          <mxGeometry width="50" height="50" relative="1" as="geometry">
            <mxPoint x="401.6600000000001" y="220" as="sourcePoint" />
            <mxPoint x="401.6600000000001" y="290" as="targetPoint" />
            <Array as="points">
              <mxPoint x="401.6600000000001" y="270" />
            </Array>
          </mxGeometry>
        </mxCell>
        <mxCell id="PupEkHxcg74p78PUQizy-3" value="atributos del cliente" style="swimlane;whiteSpace=wrap;html=1;" vertex="1" parent="1">
          <mxGeometry x="90" y="300" width="200" height="200" as="geometry" />
        </mxCell>
        <mxCell id="PupEkHxcg74p78PUQizy-4" value="nombre de usuario(string)&lt;div&gt;lista de compras:[compras]&amp;nbsp;&lt;/div&gt;&lt;div&gt;fecha de registro:date&lt;/div&gt;&lt;div&gt;&lt;span style=&quot;background-color: transparent; color: light-dark(rgb(0, 0, 0), rgb(255, 255, 255));&quot;&gt;&amp;nbsp;lista valoraciones:[valoraciones]&lt;/span&gt;&lt;/div&gt;" style="text;html=1;align=center;verticalAlign=middle;resizable=0;points=[];autosize=1;strokeColor=none;fillColor=none;" vertex="1" parent="PupEkHxcg74p78PUQizy-3">
          <mxGeometry y="65" width="200" height="70" as="geometry" />
        </mxCell>
        <mxCell id="PupEkHxcg74p78PUQizy-5" value="metodos" style="swimlane;whiteSpace=wrap;html=1;" vertex="1" parent="1">
          <mxGeometry x="203" y="500" width="394" height="200" as="geometry" />
        </mxCell>
        <mxCell id="PupEkHxcg74p78PUQizy-6" value="agregar valoracion(valoracion)&lt;div&gt;eliminar valoracion(valoracion)&amp;nbsp;&lt;/div&gt;&lt;div&gt;editar valoracion(valoracion&lt;/div&gt;" style="text;html=1;align=center;verticalAlign=middle;resizable=0;points=[];autosize=1;strokeColor=none;fillColor=none;" vertex="1" parent="PupEkHxcg74p78PUQizy-5">
          <mxGeometry x="99" y="70" width="190" height="60" as="geometry" />
        </mxCell>
        <mxCell id="PupEkHxcg74p78PUQizy-7" value="atributos del pedido&amp;nbsp;" style="swimlane;whiteSpace=wrap;html=1;" vertex="1" parent="1">
          <mxGeometry x="530" y="300" width="200" height="200" as="geometry" />
        </mxCell>
        <mxCell id="cs6TXZ8Iz7W9WL0bDbze-2" value="fechaEmison:date&lt;div&gt;fechaEntrega:date&lt;/div&gt;&lt;div&gt;identificador:int&lt;/div&gt;&lt;div&gt;nombreProducto:sting&lt;/div&gt;&lt;div&gt;cantidad:int&lt;/div&gt;" style="text;html=1;align=center;verticalAlign=middle;resizable=0;points=[];autosize=1;strokeColor=none;fillColor=none;" vertex="1" parent="PupEkHxcg74p78PUQizy-7">
          <mxGeometry x="30" y="55" width="140" height="90" as="geometry" />
        </mxCell>
        <mxCell id="cs6TXZ8Iz7W9WL0bDbze-3" value="atrbutos de valoracion" style="swimlane;whiteSpace=wrap;html=1;" vertex="1" parent="1">
          <mxGeometry x="314" y="300" width="200" height="200" as="geometry" />
        </mxCell>
        <mxCell id="cs6TXZ8Iz7W9WL0bDbze-4" value="nombre de usuario(string)&lt;div&gt;nombreProducto:string&amp;nbsp;&lt;/div&gt;&lt;div&gt;comentario:sting&lt;/div&gt;&lt;div&gt;puntuacion:int&lt;/div&gt;" style="text;html=1;align=center;verticalAlign=middle;resizable=0;points=[];autosize=1;strokeColor=none;fillColor=none;" vertex="1" parent="cs6TXZ8Iz7W9WL0bDbze-3">
          <mxGeometry x="20" y="65" width="160" height="70" as="geometry" />
        </mxCell>
      </root>
    </mxGraphModel>
  </diagram>
  <diagram id="MPz6eZklYMLWJ68k67sB" name="Página-3">
    <mxGraphModel dx="1678" dy="914" grid="1" gridSize="10" guides="1" tooltips="1" connect="1" arrows="1" fold="1" page="1" pageScale="1" pageWidth="827" pageHeight="1169" math="0" shadow="0">
      <root>
        <mxCell id="0" />
        <mxCell id="1" parent="0" />
        <mxCell id="iCi4HLwF7sW3keVKBYOj-1" value="problema 3" style="rounded=0;whiteSpace=wrap;html=1;" vertex="1" parent="1">
          <mxGeometry x="760" y="130" width="120" height="60" as="geometry" />
        </mxCell>
        <mxCell id="iCi4HLwF7sW3keVKBYOj-2" value="" style="shape=flexArrow;endArrow=classic;html=1;rounded=0;" edge="1" parent="1">
          <mxGeometry width="50" height="50" relative="1" as="geometry">
            <mxPoint x="821.6600000000001" y="230" as="sourcePoint" />
            <mxPoint x="821.6600000000001" y="300" as="targetPoint" />
            <Array as="points">
              <mxPoint x="821.6600000000001" y="280" />
            </Array>
          </mxGeometry>
        </mxCell>
        <mxCell id="iCi4HLwF7sW3keVKBYOj-3" value="atributos del grupo" style="swimlane;whiteSpace=wrap;html=1;" vertex="1" parent="1">
          <mxGeometry x="420" y="310" width="200" height="200" as="geometry">
            <mxRectangle x="360" y="-20" width="140" height="30" as="alternateBounds" />
          </mxGeometry>
        </mxCell>
        <mxCell id="iCi4HLwF7sW3keVKBYOj-4" value="nombre de usuario(string)&lt;div&gt;lista de miembros[miembro]&lt;/div&gt;&lt;div&gt;&lt;span style=&quot;background-color: transparent; color: light-dark(rgb(0, 0, 0), rgb(255, 255, 255));&quot;&gt;&amp;nbsp;lista valoraciones:[proyecto]&lt;/span&gt;&lt;/div&gt;" style="text;html=1;align=center;verticalAlign=middle;resizable=0;points=[];autosize=1;strokeColor=none;fillColor=none;" vertex="1" parent="iCi4HLwF7sW3keVKBYOj-3">
          <mxGeometry x="15" y="70" width="170" height="60" as="geometry" />
        </mxCell>
        <mxCell id="iCi4HLwF7sW3keVKBYOj-5" value="&amp;nbsp;metodos/grupo" style="swimlane;whiteSpace=wrap;html=1;" vertex="1" parent="1">
          <mxGeometry x="420" y="510" width="200" height="200" as="geometry" />
        </mxCell>
        <mxCell id="iCi4HLwF7sW3keVKBYOj-6" value="agregar miembro(miembro)&lt;div&gt;eliminar miembro(miembro)&amp;nbsp;&lt;/div&gt;&lt;div&gt;crearProyecto(proyecto)&lt;/div&gt;&lt;div&gt;eliminarProyecto(proyecto&lt;/div&gt;" style="text;html=1;align=center;verticalAlign=middle;resizable=0;points=[];autosize=1;strokeColor=none;fillColor=none;" vertex="1" parent="iCi4HLwF7sW3keVKBYOj-5">
          <mxGeometry x="15" y="65" width="170" height="70" as="geometry" />
        </mxCell>
        <mxCell id="iCi4HLwF7sW3keVKBYOj-7" value="atributos del miembro" style="swimlane;whiteSpace=wrap;html=1;" vertex="1" parent="1">
          <mxGeometry x="870" y="310" width="210" height="200" as="geometry" />
        </mxCell>
        <mxCell id="iCi4HLwF7sW3keVKBYOj-8" value="nombre:srting&lt;div&gt;numeroTelefono:int&lt;/div&gt;&lt;div&gt;correo:string&lt;/div&gt;" style="text;html=1;align=center;verticalAlign=middle;resizable=0;points=[];autosize=1;strokeColor=none;fillColor=none;" vertex="1" parent="iCi4HLwF7sW3keVKBYOj-7">
          <mxGeometry x="35" y="70" width="130" height="60" as="geometry" />
        </mxCell>
        <mxCell id="iCi4HLwF7sW3keVKBYOj-9" value="atrbutos de proyecto" style="swimlane;whiteSpace=wrap;html=1;" vertex="1" parent="1">
          <mxGeometry x="637" y="310" width="200" height="200" as="geometry" />
        </mxCell>
        <mxCell id="iCi4HLwF7sW3keVKBYOj-10" value="nombre:string&lt;div&gt;nombreCurso:string&amp;nbsp;&lt;/div&gt;&lt;div&gt;prioridad:string&lt;/div&gt;&lt;div&gt;fechaEntrega:date&lt;/div&gt;&lt;div&gt;listaTareas[tareas]&lt;/div&gt;&lt;div&gt;estado:bool&lt;/div&gt;" style="text;html=1;align=center;verticalAlign=middle;resizable=0;points=[];autosize=1;strokeColor=none;fillColor=none;" vertex="1" parent="iCi4HLwF7sW3keVKBYOj-9">
          <mxGeometry x="35" y="50" width="130" height="100" as="geometry" />
        </mxCell>
        <mxCell id="iCi4HLwF7sW3keVKBYOj-11" value="atributos de tarea" style="swimlane;whiteSpace=wrap;html=1;" vertex="1" parent="1">
          <mxGeometry x="1100" y="310" width="210" height="200" as="geometry" />
        </mxCell>
        <mxCell id="iCi4HLwF7sW3keVKBYOj-12" value="nombreTarea:srting&lt;div&gt;decripcion:string&lt;/div&gt;&lt;div&gt;miembroAsignado:miembro&lt;/div&gt;&lt;div&gt;estado:bool&lt;/div&gt;" style="text;html=1;align=center;verticalAlign=middle;resizable=0;points=[];autosize=1;strokeColor=none;fillColor=none;" vertex="1" parent="iCi4HLwF7sW3keVKBYOj-11">
          <mxGeometry x="15" y="65" width="170" height="70" as="geometry" />
        </mxCell>
        <mxCell id="iCi4HLwF7sW3keVKBYOj-13" value="&amp;nbsp;metodos/proyecto" style="swimlane;whiteSpace=wrap;html=1;" vertex="1" parent="1">
          <mxGeometry x="640" y="510" width="200" height="200" as="geometry" />
        </mxCell>
        <mxCell id="iCi4HLwF7sW3keVKBYOj-14" value="asignarTrea(tarea)&lt;div&gt;modificarEstado(bool)&lt;/div&gt;&lt;div&gt;&lt;br&gt;&lt;/div&gt;" style="text;html=1;align=center;verticalAlign=middle;resizable=0;points=[];autosize=1;strokeColor=none;fillColor=none;" vertex="1" parent="iCi4HLwF7sW3keVKBYOj-13">
          <mxGeometry x="30" y="70" width="140" height="60" as="geometry" />
        </mxCell>
        <mxCell id="iCi4HLwF7sW3keVKBYOj-15" value="&amp;nbsp;metodos/grupo" style="swimlane;whiteSpace=wrap;html=1;" vertex="1" parent="1">
          <mxGeometry x="1100" y="510" width="210" height="200" as="geometry" />
        </mxCell>
        <mxCell id="iCi4HLwF7sW3keVKBYOj-16" value="asignarMiembro(miembro)&lt;div&gt;modificarEstado(bool)&lt;/div&gt;" style="text;html=1;align=center;verticalAlign=middle;resizable=0;points=[];autosize=1;strokeColor=none;fillColor=none;" vertex="1" parent="iCi4HLwF7sW3keVKBYOj-15">
          <mxGeometry x="20" y="80" width="160" height="40" as="geometry" />
        </mxCell>
      </root>
    </mxGraphModel>
  </diagram>
  <diagram id="alf7NtHBaD2gP6GNcVjj" name="Página-4">
    <mxGraphModel dx="2216" dy="954" grid="1" gridSize="10" guides="1" tooltips="1" connect="1" arrows="1" fold="1" page="1" pageScale="1" pageWidth="827" pageHeight="1169" math="0" shadow="0">
      <root>
        <mxCell id="0" />
        <mxCell id="1" parent="0" />
        <mxCell id="kPx8n8xSzsdaO7MC9sij-1" value="problema 4" style="rounded=0;whiteSpace=wrap;html=1;" vertex="1" parent="1">
          <mxGeometry x="344" y="260" width="120" height="60" as="geometry" />
        </mxCell>
        <mxCell id="kPx8n8xSzsdaO7MC9sij-2" value="" style="shape=flexArrow;endArrow=classic;html=1;rounded=0;" edge="1" parent="1">
          <mxGeometry width="50" height="50" relative="1" as="geometry">
            <mxPoint x="396.6600000000001" y="330" as="sourcePoint" />
            <mxPoint x="396.6600000000001" y="400" as="targetPoint" />
            <Array as="points">
              <mxPoint x="396.6600000000001" y="380" />
            </Array>
          </mxGeometry>
        </mxCell>
        <mxCell id="kPx8n8xSzsdaO7MC9sij-3" value="atrubutuos de la lista&amp;nbsp;" style="swimlane;whiteSpace=wrap;html=1;" vertex="1" parent="1">
          <mxGeometry x="297" y="410" width="200" height="200" as="geometry" />
        </mxCell>
        <mxCell id="kPx8n8xSzsdaO7MC9sij-4" value="&lt;div&gt;direccion de memoria&amp;nbsp;&lt;/div&gt;&lt;div&gt;direccion de estado&amp;nbsp;&lt;/div&gt;&lt;div&gt;dato:str-int-bool&lt;/div&gt;" style="text;html=1;align=center;verticalAlign=middle;resizable=0;points=[];autosize=1;strokeColor=none;fillColor=none;" vertex="1" parent="kPx8n8xSzsdaO7MC9sij-3">
          <mxGeometry x="25" y="60" width="140" height="60" as="geometry" />
        </mxCell>
        <mxCell id="kPx8n8xSzsdaO7MC9sij-5" value="metodos" style="swimlane;whiteSpace=wrap;html=1;" vertex="1" parent="1">
          <mxGeometry x="200" y="610" width="394" height="200" as="geometry" />
        </mxCell>
        <mxCell id="kPx8n8xSzsdaO7MC9sij-6" value="obtener dato(direcciion de memoria)&lt;div&gt;modificar dato(direccion de estado)&lt;/div&gt;" style="text;html=1;align=center;verticalAlign=middle;resizable=0;points=[];autosize=1;strokeColor=none;fillColor=none;" vertex="1" parent="kPx8n8xSzsdaO7MC9sij-5">
          <mxGeometry x="84" y="80" width="220" height="40" as="geometry" />
        </mxCell>
      </root>
    </mxGraphModel>
  </diagram>
</mxfile>
